# xmcd CD database file
#
# Track frame offsets:
#	150
#	13997
#	27957
#	46557
#	65637
#	77087
#	89330
#	116020
#	128370
#	142540
#	164917
#
# Disc length: 2415 seconds
#
# Revision: 0
# Processed by: cddbd v1.5.2PL0 Copyright (c) Steve Scherf et al.
# Submitted via: CDex 1.70beta2
#
DISCID=87096d0b
DTITLE=Searson Family - Cdn. - Hyndford, ON - Cty. - Searson Family
DYEAR=1900
DGENRE=Country
TTITLE0=Mairi's Wedding
TTITLE1=Down Highway 41
TTITLE2=Song For the Mira
TTITLE3=My Love Is Like A Red Red Rose
TTITLE4=Le Reel Beatrice
TTITLE5=The Anniversary
TTITLE6=Coinleach Glas An Fhomair
TTITLE7=Tell My Mom
TTITLE8=Cockles and mussels
TTITLE9=On My Way
TTITLE10=Willow's Branches
EXTD=
EXTT0=
EXTT1=
EXTT2=
EXTT3=
EXTT4=
EXTT5=
EXTT6=
EXTT7=
EXTT8=
EXTT9=
EXTT10=
PLAYORDER=
